Coordinates
version=1
nRows=5
nColumns=40
inDegrees=yes

Units are S.I. units (second, meters, Newtons, ...)
If the header above contains a line with 'inDegrees', this indicates whether rotational values are in degrees (yes) or radians (no).

endheader
time	pelvis_tilt	pelvis_list	pelvis_rotation	pelvis_tx	pelvis_ty	pelvis_tz	hip_flexion_r	hip_adduction_r	hip_rotation_r	knee_angle_r	knee_angle_r_beta	ankle_angle_r	subtalar_angle_r	mtp_angle_r	hip_flexion_l	hip_adduction_l	hip_rotation_l	knee_angle_l	knee_angle_l_beta	ankle_angle_l	subtalar_angle_l	mtp_angle_l	lumbar_extension	lumbar_bending	lumbar_rotation	arm_flex_r	arm_add_r	arm_rot_r	elbow_flex_r	pro_sup_r	wrist_flex_r	wrist_dev_r	arm_flex_l	arm_add_l	arm_rot_l	elbow_flex_l	pro_sup_l	wrist_flex_l	wrist_dev_l
      0.00000000	     -2.17607240	     89.79725490	      3.39918791	      0.08764904	      0.31364829	      0.92865306	     28.58824033	     -0.25130813	     -4.88075646	      9.30046597	      0.16232375	    -13.30848730	      0.00000000	      0.00000000	    -10.72295938	      1.05255435	      0.53739516	     18.72326204	      0.32678257	      3.61682164	      0.00000000	      0.00000000	    -12.88818201	      0.81814064	     -8.13550482	      0.90173394	    -12.72644464	      4.82628089	     33.73978596	     75.58075030	      0.00000000	      0.00000000	      9.23678943	    -24.07818230	     24.02286898	     53.55242670	     65.94297168	      0.00000000	      0.00000000
      0.00400000	     -2.18510773	     89.80102332	      3.36615808	      0.09354684	      0.31360136	      0.92763793	     28.79252658	     -0.21112635	     -4.92568087	      9.24977964	      0.16143911	    -13.29899085	      0.00000000	      0.00000000	    -11.04085781	      1.04177899	      0.59946122	     18.87045517	      0.32935157	      3.56055686	      0.00000000	      0.00000000	    -12.84376030	      0.85359164	     -8.06685912	      0.82796957	    -12.69167184	      4.92439023	     33.68073126	     75.64051625	      0.00000000	      0.00000000	      9.26738303	    -23.97280217	     24.02634972	     53.59867520	     65.92825822	      0.00000000	      0.00000000
      0.00800000	     -2.22656994	     89.80866052	      3.30422048	      0.09912561	      0.31343048	      0.92664556	     28.99783238	     -0.14124436	     -4.93319437	      9.20393728	      0.16063901	    -13.29022448	      0.00000000	      0.00000000	    -11.34388708	      1.04110282	      0.64246387	     19.01279101	      0.33183580	      3.50229819	      0.00000000	      0.00000000	    -12.83891799	      0.87560453	     -8.03340413	      0.88435533	    -12.76780428	      4.87765707	     33.60057483	     75.63769989	      0.00000000	      0.00000000	      9.27510745	    -23.91791253	     24.01613759	     53.60985113	     65.90895132	      0.00000000	      0.00000000
      0.01200000	     -2.18592404	     89.80458963	      3.32582210	      0.10553138	      0.31327381	      0.92569895	     29.11038017	     -0.15440551	     -4.90489813	      9.20695131	      0.16069161	    -13.27863727	      0.00000000	      0.00000000	    -11.67742619	      0.97133374	      0.69170121	     19.17782305	      0.33471616	      3.41702603	      0.00000000	      0.00000000	    -12.74141935	      0.90865607	     -8.05430319	      0.75114394	    -12.74257739	      4.86391770	     33.45996167	     75.63776270	      0.00000000	      0.00000000	      9.23278855	    -23.80923158	     24.01931512	     53.62486466	     65.89102317	      0.00000000	      0.00000000
      0.01600000	     -2.07615964	     89.81527856	      3.34568094	      0.11129270	      0.31325830	      0.92487366	     29.28388386	     -0.20934043	     -4.98413695	      9.36100894	      0.16338043	    -13.00150325	      0.00000000	      0.00000000	    -11.81846763	      0.90003036	      0.93206401	     19.57213607	      0.34159822	      2.96537150	      0.00000000	      0.00000000	    -12.70599778	      0.94783404	     -8.18748321	      0.82870797	    -12.63655785	      4.95513263	     33.12598356	     75.84417955	      0.00000000	      0.00000000	      9.29346433	    -23.73118292	     24.00368821	     53.54770861	     65.77937762	      0.00000000	      0.00000000
